<svg width="793" height="114" viewBox="0 0 793 114" fill="none" xmlns="http://www.w3.org/2000/svg">
<path d="M793 55L112 55" stroke="#DF991B" stroke-width="1.5"/>
<mask id="path-2-inside-1_3617_3" fill="white">
<path fill-rule="evenodd" clip-rule="evenodd" d="M56.188 113.812C56.1882 113.812 56.1884 113.812 56.1885 113.812C87.5647 113.812 113 88.3763 113 57.0001C113 25.6239 87.5647 0.188477 56.1885 0.188477C56.1884 0.188477 56.1882 0.188477 56.188 0.188477V113.812Z"/>
</mask>
<path d="M56.188 113.812H55.188V114.812H56.188V113.812ZM56.188 0.188477V-0.811523H55.188V0.188477H56.188ZM56.1885 112.812C56.1885 112.812 56.1885 112.812 56.1885 112.812C56.1885 112.812 56.1885 112.812 56.1885 112.812C56.1885 112.812 56.1885 112.812 56.1885 112.812C56.1885 112.812 56.1885 112.812 56.1885 112.812C56.1885 112.812 56.1885 112.812 56.1885 112.812C56.1885 112.812 56.1885 112.812 56.1885 112.812C56.1885 112.812 56.1885 112.812 56.1885 112.812C56.1885 112.812 56.1885 112.812 56.1885 112.812C56.1885 112.812 56.1885 112.812 56.1885 112.812C56.1885 112.812 56.1885 112.812 56.1885 112.812C56.1885 112.812 56.1885 112.812 56.1885 112.812C56.1885 112.812 56.1885 112.812 56.1885 112.812C56.1885 112.812 56.1885 112.812 56.1885 112.812C56.1885 112.812 56.1885 112.812 56.1885 112.812C56.1885 112.812 56.1885 112.812 56.1885 112.812C56.1885 112.812 56.1885 112.812 56.1885 112.812C56.1885 112.812 56.1885 112.812 56.1885 112.812C56.1885 112.812 56.1885 112.812 56.1885 112.812C56.1885 112.812 56.1885 112.812 56.1885 112.812C56.1885 112.812 56.1885 112.812 56.1885 112.812C56.1885 112.812 56.1885 112.812 56.1885 112.812C56.1885 112.812 56.1885 112.812 56.1885 112.812C56.1885 112.812 56.1885 112.812 56.1885 112.812C56.1885 112.812 56.1885 112.812 56.1885 112.812C56.1885 112.812 56.1885 112.812 56.1885 112.812C56.1885 112.812 56.1885 112.812 56.1885 112.812C56.1885 112.812 56.1885 112.812 56.1885 112.812C56.1885 112.812 56.1885 112.812 56.1885 112.812C56.1885 112.812 56.1885 112.812 56.1885 112.812C56.1885 112.812 56.1885 112.812 56.1885 112.812C56.1885 112.812 56.1885 112.812 56.1885 112.812C56.1885 112.812 56.1885 112.812 56.1885 112.812C56.1885 112.812 56.1885 112.812 56.1885 112.812C56.1885 112.812 56.1885 112.812 56.1885 112.812C56.1885 112.812 56.1885 112.812 56.1885 112.812C56.1885 112.812 56.1885 112.812 56.1885 112.812C56.1885 112.812 56.1885 112.812 56.1885 112.812C56.1885 112.812 56.1885 112.812 56.1885 112.812C56.1885 112.812 56.1885 112.812 56.1885 112.812C56.1885 112.812 56.1885 112.812 56.1885 112.812C56.1885 112.812 56.1885 112.812 56.1885 112.812C56.1885 112.812 56.1885 112.812 56.1885 112.812C56.1885 112.812 56.1885 112.812 56.1885 112.812C56.1885 112.812 56.1885 112.812 56.1885 112.812C56.1885 112.812 56.1885 112.812 56.1885 112.812C56.1885 112.812 56.1885 112.812 56.1885 112.812C56.1885 112.812 56.1885 112.812 56.1885 112.812C56.1885 112.812 56.1885 112.812 56.1885 112.812C56.1885 112.812 56.1885 112.812 56.1885 112.812C56.1885 112.812 56.1885 112.812 56.1885 112.812C56.1885 112.812 56.1885 112.812 56.1885 112.812C56.1885 112.812 56.1885 112.812 56.1885 112.812C56.1885 112.812 56.1885 112.812 56.1885 112.812C56.1885 112.812 56.1885 112.812 56.1885 112.812C56.1885 112.812 56.1885 112.812 56.1885 112.812C56.1885 112.812 56.1885 112.812 56.1885 112.812C56.1885 112.812 56.1885 112.812 56.1885 112.812C56.1885 112.812 56.1885 112.812 56.1885 112.812C56.1885 112.812 56.1885 112.812 56.1885 112.812C56.1885 112.812 56.1885 112.812 56.1885 112.812C56.1885 112.812 56.1885 112.812 56.1885 112.812C56.1885 112.812 56.1885 112.812 56.1885 112.812C56.1885 112.812 56.1885 112.812 56.1885 112.812C56.1885 112.812 56.1885 112.812 56.1885 112.812C56.1885 112.812 56.1885 112.812 56.1885 112.812C56.1885 112.812 56.1885 112.812 56.1885 112.812C56.1885 112.812 56.1885 112.812 56.1885 112.812C56.1885 112.812 56.1885 112.812 56.1885 112.812C56.1885 112.812 56.1885 112.812 56.1885 112.812C56.1885 112.812 56.1885 112.812 56.1885 112.812C56.1885 112.812 56.1885 112.812 56.1885 112.812C56.1885 112.812 56.1885 112.812 56.1885 112.812C56.1885 112.812 56.1885 112.812 56.1885 112.812C56.1885 112.812 56.1885 112.812 56.1885 112.812C56.1885 112.812 56.1885 112.812 56.1885 112.812C56.1885 112.812 56.1885 112.812 56.1885 112.812C56.1885 112.812 56.1885 112.812 56.1885 112.812C56.1885 112.812 56.1885 112.812 56.1885 112.812C56.1885 112.812 56.1885 112.812 56.1885 112.812C56.1885 112.812 56.1885 112.812 56.1885 112.812C56.1885 112.812 56.1885 112.812 56.1885 112.812C56.1885 112.812 56.1885 112.812 56.1885 112.812C56.1885 112.812 56.1885 112.812 56.1885 112.812C56.1885 112.812 56.1885 112.812 56.1885 112.812C56.1885 112.812 56.1884 112.812 56.1884 112.812C56.1884 112.812 56.1884 112.812 56.1884 112.812C56.1884 112.812 56.1884 112.812 56.1884 112.812C56.1884 112.812 56.1884 112.812 56.1884 112.812C56.1884 112.812 56.1884 112.812 56.1884 112.812C56.1884 112.812 56.1884 112.812 56.1884 112.812C56.1884 112.812 56.1884 112.812 56.1884 112.812C56.1884 112.812 56.1884 112.812 56.1884 112.812C56.1884 112.812 56.1884 112.812 56.1884 112.812C56.1884 112.812 56.1884 112.812 56.1884 112.812C56.1884 112.812 56.1884 112.812 56.1884 112.812C56.1884 112.812 56.1884 112.812 56.1884 112.812C56.1884 112.812 56.1884 112.812 56.1884 112.812C56.1884 112.812 56.1884 112.812 56.1884 112.812C56.1884 112.812 56.1884 112.812 56.1884 112.812C56.1884 112.812 56.1884 112.812 56.1884 112.812C56.1884 112.812 56.1884 112.812 56.1884 112.812C56.1884 112.812 56.1884 112.812 56.1884 112.812C56.1884 112.812 56.1884 112.812 56.1884 112.812C56.1884 112.812 56.1884 112.812 56.1884 112.812C56.1884 112.812 56.1884 112.812 56.1884 112.812C56.1884 112.812 56.1884 112.812 56.1884 112.812C56.1884 112.812 56.1884 112.812 56.1884 112.812C56.1884 112.812 56.1884 112.812 56.1884 112.812C56.1884 112.812 56.1884 112.812 56.1884 112.812C56.1884 112.812 56.1884 112.812 56.1884 112.812C56.1884 112.812 56.1884 112.812 56.1884 112.812C56.1884 112.812 56.1884 112.812 56.1884 112.812C56.1884 112.812 56.1884 112.812 56.1884 112.812C56.1884 112.812 56.1884 112.812 56.1884 112.812C56.1884 112.812 56.1884 112.812 56.1884 112.812C56.1884 112.812 56.1884 112.812 56.1884 112.812C56.1884 112.812 56.1884 112.812 56.1884 112.812C56.1884 112.812 56.1884 112.812 56.1884 112.812C56.1884 112.812 56.1884 112.812 56.1884 112.812C56.1884 112.812 56.1884 112.812 56.1884 112.812C56.1884 112.812 56.1884 112.812 56.1884 112.812C56.1884 112.812 56.1884 112.812 56.1884 112.812C56.1884 112.812 56.1884 112.812 56.1884 112.812C56.1884 112.812 56.1884 112.812 56.1884 112.812C56.1884 112.812 56.1884 112.812 56.1884 112.812C56.1884 112.812 56.1884 112.812 56.1884 112.812C56.1884 112.812 56.1884 112.812 56.1884 112.812C56.1884 112.812 56.1884 112.812 56.1884 112.812C56.1884 112.812 56.1884 112.812 56.1884 112.812C56.1884 112.812 56.1884 112.812 56.1884 112.812C56.1884 112.812 56.1884 112.812 56.1884 112.812C56.1884 112.812 56.1884 112.812 56.1884 112.812C56.1884 112.812 56.1884 112.812 56.1884 112.812C56.1884 112.812 56.1884 112.812 56.1884 112.812C56.1884 112.812 56.1884 112.812 56.1884 112.812C56.1884 112.812 56.1884 112.812 56.1884 112.812C56.1884 112.812 56.1884 112.812 56.1884 112.812C56.1884 112.812 56.1884 112.812 56.1884 112.812C56.1884 112.812 56.1884 112.812 56.1884 112.812C56.1884 112.812 56.1884 112.812 56.1884 112.812C56.1884 112.812 56.1884 112.812 56.1884 112.812C56.1884 112.812 56.1884 112.812 56.1884 112.812C56.1884 112.812 56.1884 112.812 56.1884 112.812C56.1884 112.812 56.1884 112.812 56.1884 112.812C56.1884 112.812 56.1884 112.812 56.1884 112.812C56.1884 112.812 56.1884 112.812 56.1884 112.812C56.1884 112.812 56.1884 112.812 56.1884 112.812C56.1884 112.812 56.1884 112.812 56.1884 112.812C56.1884 112.812 56.1884 112.812 56.1884 112.812C56.1884 112.812 56.1884 112.812 56.1884 112.812C56.1884 112.812 56.1884 112.812 56.1884 112.812C56.1884 112.812 56.1884 112.812 56.1884 112.812C56.1884 112.812 56.1884 112.812 56.1884 112.812C56.1884 112.812 56.1884 112.812 56.1884 112.812C56.1884 112.812 56.1884 112.812 56.1884 112.812C56.1884 112.812 56.1884 112.812 56.1884 112.812C56.1884 112.812 56.1884 112.812 56.1884 112.812C56.1884 112.812 56.1884 112.812 56.1884 112.812C56.1884 112.812 56.1884 112.812 56.1884 112.812C56.1884 112.812 56.1884 112.812 56.1884 112.812C56.1884 112.812 56.1884 112.812 56.1884 112.812C56.1884 112.812 56.1884 112.812 56.1884 112.812C56.1884 112.812 56.1884 112.812 56.1884 112.812C56.1884 112.812 56.1884 112.812 56.1884 112.812C56.1884 112.812 56.1884 112.812 56.1884 112.812C56.1884 112.812 56.1884 112.812 56.1884 112.812C56.1884 112.812 56.1884 112.812 56.1884 112.812C56.1884 112.812 56.1884 112.812 56.1884 112.812C56.1884 112.812 56.1884 112.812 56.1884 112.812C56.1884 112.812 56.1884 112.812 56.1884 112.812C56.1884 112.812 56.1884 112.812 56.1884 112.812C56.1884 112.812 56.1884 112.812 56.1884 112.812C56.1884 112.812 56.1884 112.812 56.1884 112.812C56.1884 112.812 56.1884 112.812 56.1884 112.812C56.1884 112.812 56.1884 112.812 56.1884 112.812C56.1884 112.812 56.1884 112.812 56.1884 112.812C56.1884 112.812 56.1884 112.812 56.1884 112.812C56.1883 112.812 56.1883 112.812 56.1883 112.812C56.1883 112.812 56.1883 112.812 56.1883 112.812C56.1883 112.812 56.1883 112.812 56.1883 112.812C56.1883 112.812 56.1883 112.812 56.1883 112.812C56.1883 112.812 56.1883 112.812 56.1883 112.812C56.1883 112.812 56.1883 112.812 56.1883 112.812C56.1883 112.812 56.1883 112.812 56.1883 112.812C56.1883 112.812 56.1883 112.812 56.1883 112.812C56.1883 112.812 56.1883 112.812 56.1883 112.812C56.1883 112.812 56.1883 112.812 56.1883 112.812C56.1883 112.812 56.1883 112.812 56.1883 112.812C56.1883 112.812 56.1883 112.812 56.1883 112.812C56.1883 112.812 56.1883 112.812 56.1883 112.812C56.1883 112.812 56.1883 112.812 56.1883 112.812C56.1883 112.812 56.1883 112.812 56.1883 112.812C56.1883 112.812 56.1883 112.812 56.1883 112.812C56.1883 112.812 56.1883 112.812 56.1883 112.812C56.1883 112.812 56.1883 112.812 56.1883 112.812C56.1883 112.812 56.1883 112.812 56.1883 112.812C56.1883 112.812 56.1883 112.812 56.1883 112.812C56.1883 112.812 56.1883 112.812 56.1883 112.812C56.1883 112.812 56.1883 112.812 56.1883 112.812C56.1883 112.812 56.1883 112.812 56.1883 112.812C56.1883 112.812 56.1883 112.812 56.1883 112.812C56.1883 112.812 56.1883 112.812 56.1883 112.812C56.1883 112.812 56.1883 112.812 56.1883 112.812C56.1883 112.812 56.1883 112.812 56.1883 112.812C56.1883 112.812 56.1883 112.812 56.1883 112.812C56.1883 112.812 56.1883 112.812 56.1883 112.812C56.1883 112.812 56.1883 112.812 56.1883 112.812C56.1883 112.812 56.1883 112.812 56.1883 112.812C56.1883 112.812 56.1883 112.812 56.1883 112.812C56.1883 112.812 56.1883 112.812 56.1883 112.812C56.1883 112.812 56.1883 112.812 56.1883 112.812C56.1883 112.812 56.1883 112.812 56.1883 112.812C56.1883 112.812 56.1883 112.812 56.1883 112.812C56.1883 112.812 56.1883 112.812 56.1883 112.812C56.1883 112.812 56.1883 112.812 56.1883 112.812C56.1883 112.812 56.1883 112.812 56.1883 112.812C56.1883 112.812 56.1883 112.812 56.1883 112.812C56.1883 112.812 56.1883 112.812 56.1883 112.812C56.1883 112.812 56.1883 112.812 56.1883 112.812C56.1883 112.812 56.1883 112.812 56.1883 112.812C56.1883 112.812 56.1883 112.812 56.1883 112.812C56.1883 112.812 56.1883 112.812 56.1883 112.812C56.1883 112.812 56.1883 112.812 56.1883 112.812C56.1883 112.812 56.1883 112.812 56.1883 112.812C56.1883 112.812 56.1883 112.812 56.1883 112.812C56.1883 112.812 56.1883 112.812 56.1883 112.812C56.1883 112.812 56.1883 112.812 56.1883 112.812C56.1883 112.812 56.1883 112.812 56.1883 112.812C56.1883 112.812 56.1883 112.812 56.1883 112.812C56.1883 112.812 56.1883 112.812 56.1883 112.812C56.1883 112.812 56.1883 112.812 56.1883 112.812C56.1883 112.812 56.1883 112.812 56.1883 112.812C56.1883 112.812 56.1883 112.812 56.1883 112.812C56.1883 112.812 56.1883 112.812 56.1883 112.812C56.1883 112.812 56.1883 112.812 56.1883 112.812C56.1883 112.812 56.1883 112.812 56.1883 112.812C56.1883 112.812 56.1883 112.812 56.1883 112.812C56.1883 112.812 56.1883 112.812 56.1883 112.812C56.1883 112.812 56.1883 112.812 56.1883 112.812C56.1883 112.812 56.1883 112.812 56.1883 112.812C56.1883 112.812 56.1883 112.812 56.1883 112.812C56.1883 112.812 56.1883 112.812 56.1883 112.812C56.1883 112.812 56.1883 112.812 56.1883 112.812C56.1883 112.812 56.1883 112.812 56.1883 112.812C56.1883 112.812 56.1883 112.812 56.1883 112.812C56.1883 112.812 56.1883 112.812 56.1883 112.812C56.1883 112.812 56.1883 112.812 56.1883 112.812C56.1883 112.812 56.1883 112.812 56.1883 112.812C56.1883 112.812 56.1883 112.812 56.1883 112.812C56.1883 112.812 56.1883 112.812 56.1883 112.812C56.1883 112.812 56.1883 112.812 56.1883 112.812C56.1883 112.812 56.1883 112.812 56.1883 112.812C56.1883 112.812 56.1883 112.812 56.1883 112.812C56.1883 112.812 56.1883 112.812 56.1883 112.812C56.1883 112.812 56.1883 112.812 56.1883 112.812C56.1883 112.812 56.1883 112.812 56.1883 112.812C56.1883 112.812 56.1883 112.812 56.1883 112.812C56.1883 112.812 56.1883 112.812 56.1883 112.812C56.1883 112.812 56.1883 112.812 56.1883 112.812C56.1883 112.812 56.1883 112.812 56.1883 112.812C56.1883 112.812 56.1883 112.812 56.1883 112.812C56.1883 112.812 56.1883 112.812 56.1883 112.812C56.1883 112.812 56.1883 112.812 56.1883 112.812C56.1883 112.812 56.1883 112.812 56.1883 112.812C56.1883 112.812 56.1883 112.812 56.1883 112.812C56.1883 112.812 56.1883 112.812 56.1883 112.812C56.1883 112.812 56.1883 112.812 56.1883 112.812C56.1883 112.812 56.1883 112.812 56.1883 112.812C56.1883 112.812 56.1883 112.812 56.1883 112.812C56.1883 112.812 56.1883 112.812 56.1882 112.812C56.1882 112.812 56.1882 112.812 56.1882 112.812C56.1882 112.812 56.1882 112.812 56.1882 112.812C56.1882 112.812 56.1882 112.812 56.1882 112.812C56.1882 112.812 56.1882 112.812 56.1882 112.812C56.1882 112.812 56.1882 112.812 56.1882 112.812C56.1882 112.812 56.1882 112.812 56.1882 112.812C56.1882 112.812 56.1882 112.812 56.1882 112.812C56.1882 112.812 56.1882 112.812 56.1882 112.812C56.1882 112.812 56.1882 112.812 56.1882 112.812C56.1882 112.812 56.1882 112.812 56.1882 112.812C56.1882 112.812 56.1882 112.812 56.1882 112.812C56.1882 112.812 56.1882 112.812 56.1882 112.812C56.1882 112.812 56.1882 112.812 56.1882 112.812C56.1882 112.812 56.1882 112.812 56.1882 112.812C56.1882 112.812 56.1882 112.812 56.1882 112.812C56.1882 112.812 56.1882 112.812 56.1882 112.812C56.1882 112.812 56.1882 112.812 56.1882 112.812C56.1882 112.812 56.1882 112.812 56.1882 112.812C56.1882 112.812 56.1882 112.812 56.1882 112.812C56.1882 112.812 56.1882 112.812 56.1882 112.812C56.1882 112.812 56.1882 112.812 56.1882 112.812C56.1882 112.812 56.1882 112.812 56.1882 112.812C56.1882 112.812 56.1882 112.812 56.1882 112.812C56.1882 112.812 56.1882 112.812 56.1882 112.812C56.1882 112.812 56.1882 112.812 56.1882 112.812C56.1882 112.812 56.1882 112.812 56.1882 112.812C56.1882 112.812 56.1882 112.812 56.1882 112.812C56.1882 112.812 56.1882 112.812 56.1882 112.812C56.1882 112.812 56.1882 112.812 56.1882 112.812C56.1882 112.812 56.1882 112.812 56.1882 112.812C56.1882 112.812 56.1882 112.812 56.1882 112.812C56.1882 112.812 56.1882 112.812 56.1882 112.812C56.1882 112.812 56.1882 112.812 56.1882 112.812C56.1882 112.812 56.1882 112.812 56.1882 112.812C56.1882 112.812 56.1882 112.812 56.1882 112.812C56.1882 112.812 56.1882 112.812 56.1882 112.812C56.1882 112.812 56.1882 112.812 56.1882 112.812C56.1882 112.812 56.1882 112.812 56.1882 112.812C56.1882 112.812 56.1882 112.812 56.1882 112.812C56.1882 112.812 56.1882 112.812 56.1882 112.812C56.1882 112.812 56.1882 112.812 56.1882 112.812C56.1882 112.812 56.1882 112.812 56.1882 112.812C56.1882 112.812 56.1882 112.812 56.1882 112.812C56.1882 112.812 56.1882 112.812 56.1882 112.812C56.1882 112.812 56.1882 112.812 56.1882 112.812C56.1882 112.812 56.1882 112.812 56.1882 112.812C56.1882 112.812 56.1882 112.812 56.1882 112.812C56.1882 112.812 56.1882 112.812 56.1882 112.812C56.1882 112.812 56.1882 112.812 56.1882 112.812C56.1882 112.812 56.1882 112.812 56.1882 112.812C56.1882 112.812 56.1882 112.812 56.1882 112.812C56.1882 112.812 56.1882 112.812 56.1882 112.812C56.1882 112.812 56.1882 112.812 56.1882 112.812C56.1882 112.812 56.1882 112.812 56.1882 112.812C56.1882 112.812 56.1882 112.812 56.1882 112.812C56.1882 112.812 56.1882 112.812 56.1882 112.812C56.1882 112.812 56.1882 112.812 56.1882 112.812C56.1882 112.812 56.1882 112.812 56.1882 112.812C56.1882 112.812 56.1882 112.812 56.1882 112.812C56.1882 112.812 56.1882 112.812 56.1882 112.812C56.1882 112.812 56.1882 112.812 56.1882 112.812C56.1882 112.812 56.1882 112.812 56.1882 112.812C56.1882 112.812 56.1882 112.812 56.1882 112.812C56.1882 112.812 56.1882 112.812 56.1882 112.812C56.1882 112.812 56.1882 112.812 56.1882 112.812C56.1882 112.812 56.1882 112.812 56.1882 112.812C56.1882 112.812 56.1882 112.812 56.1882 112.812C56.1882 112.812 56.1882 112.812 56.1882 112.812C56.1882 112.812 56.1882 112.812 56.1882 112.812C56.1882 112.812 56.1882 112.812 56.1882 112.812C56.1882 112.812 56.1882 112.812 56.1882 112.812C56.1882 112.812 56.1882 112.812 56.1882 112.812C56.1882 112.812 56.1882 112.812 56.1882 112.812C56.1882 112.812 56.1882 112.812 56.1882 112.812C56.1882 112.812 56.1882 112.812 56.1882 112.812C56.1882 112.812 56.1882 112.812 56.1882 112.812C56.1882 112.812 56.1882 112.812 56.1882 112.812C56.1882 112.812 56.1882 112.812 56.1882 112.812C56.1882 112.812 56.1882 112.812 56.1882 112.812C56.1882 112.812 56.1882 112.812 56.1882 112.812C56.1882 112.812 56.1882 112.812 56.1882 112.812C56.1882 112.812 56.1882 112.812 56.1882 112.812C56.1882 112.812 56.1882 112.812 56.1882 112.812C56.1882 112.812 56.1882 112.812 56.1882 112.812C56.1882 112.812 56.1882 112.812 56.1882 112.812C56.1882 112.812 56.1882 112.812 56.1882 112.812C56.1882 112.812 56.1882 112.812 56.1882 112.812C56.1882 112.812 56.1882 112.812 56.1882 112.812C56.1882 112.812 56.1882 112.812 56.1882 112.812C56.1882 112.812 56.1882 112.812 56.1882 112.812C56.1882 112.812 56.1882 112.812 56.1882 112.812C56.1882 112.812 56.1882 112.812 56.1882 112.812C56.1881 112.812 56.1881 112.812 56.1881 112.812C56.1881 112.812 56.1881 112.812 56.1881 112.812C56.1881 112.812 56.1881 112.812 56.1881 112.812C56.1881 112.812 56.1881 112.812 56.1881 112.812C56.1881 112.812 56.1881 112.812 56.1881 112.812C56.1881 112.812 56.1881 112.812 56.1881 112.812C56.1881 112.812 56.1881 112.812 56.1881 112.812C56.1881 112.812 56.1881 112.812 56.1881 112.812C56.1881 112.812 56.1881 112.812 56.1881 112.812C56.1881 112.812 56.1881 112.812 56.1881 112.812C56.1881 112.812 56.1881 112.812 56.1881 112.812C56.1881 112.812 56.1881 112.812 56.1881 112.812C56.1881 112.812 56.1881 112.812 56.1881 112.812C56.1881 112.812 56.1881 112.812 56.1881 112.812C56.1881 112.812 56.1881 112.812 56.1881 112.812C56.1881 112.812 56.1881 112.812 56.1881 112.812C56.1881 112.812 56.1881 112.812 56.1881 112.812C56.1881 112.812 56.1881 112.812 56.1881 112.812C56.1881 112.812 56.1881 112.812 56.1881 112.812C56.1881 112.812 56.1881 112.812 56.1881 112.812C56.1881 112.812 56.1881 112.812 56.1881 112.812C56.1881 112.812 56.1881 112.812 56.1881 112.812C56.1881 112.812 56.1881 112.812 56.1881 112.812C56.1881 112.812 56.1881 112.812 56.1881 112.812C56.1881 112.812 56.1881 112.812 56.1881 112.812C56.1881 112.812 56.1881 112.812 56.1881 112.812C56.1881 112.812 56.1881 112.812 56.1881 112.812C56.1881 112.812 56.1881 112.812 56.1881 112.812C56.1881 112.812 56.1881 112.812 56.1881 112.812C56.1881 112.812 56.1881 112.812 56.1881 112.812C56.1881 112.812 56.1881 112.812 56.1881 112.812C56.1881 112.812 56.1881 112.812 56.1881 112.812C56.1881 112.812 56.1881 112.812 56.1881 112.812C56.1881 112.812 56.1881 112.812 56.1881 112.812C56.1881 112.812 56.1881 112.812 56.1881 112.812C56.1881 112.812 56.1881 112.812 56.1881 112.812C56.1881 112.812 56.1881 112.812 56.1881 112.812C56.1881 112.812 56.1881 112.812 56.1881 112.812C56.1881 112.812 56.1881 112.812 56.1881 112.812C56.1881 112.812 56.1881 112.812 56.1881 112.812C56.1881 112.812 56.1881 112.812 56.1881 112.812C56.1881 112.812 56.1881 112.812 56.1881 112.812C56.1881 112.812 56.1881 112.812 56.1881 112.812C56.1881 112.812 56.1881 112.812 56.1881 112.812C56.1881 112.812 56.1881 112.812 56.1881 112.812C56.1881 112.812 56.1881 112.812 56.1881 112.812C56.1881 112.812 56.1881 112.812 56.1881 112.812C56.1881 112.812 56.1881 112.812 56.1881 112.812C56.1881 112.812 56.1881 112.812 56.1881 112.812C56.1881 112.812 56.1881 112.812 56.1881 112.812C56.1881 112.812 56.1881 112.812 56.1881 112.812C56.1881 112.812 56.1881 112.812 56.1881 112.812C56.1881 112.812 56.1881 112.812 56.1881 112.812C56.1881 112.812 56.1881 112.812 56.1881 112.812C56.1881 112.812 56.1881 112.812 56.1881 112.812C56.1881 112.812 56.1881 112.812 56.1881 112.812C56.1881 112.812 56.1881 112.812 56.1881 112.812C56.1881 112.812 56.1881 112.812 56.1881 112.812C56.1881 112.812 56.1881 112.812 56.1881 112.812C56.1881 112.812 56.1881 112.812 56.1881 112.812C56.1881 112.812 56.1881 112.812 56.1881 112.812C56.1881 112.812 56.1881 112.812 56.1881 112.812C56.1881 112.812 56.1881 112.812 56.1881 112.812C56.1881 112.812 56.1881 112.812 56.1881 112.812C56.1881 112.812 56.1881 112.812 56.1881 112.812C56.1881 112.812 56.1881 112.812 56.1881 112.812C56.1881 112.812 56.1881 112.812 56.1881 112.812C56.1881 112.812 56.1881 112.812 56.1881 112.812C56.1881 112.812 56.1881 112.812 56.1881 112.812C56.1881 112.812 56.1881 112.812 56.1881 112.812C56.1881 112.812 56.1881 112.812 56.1881 112.812C56.1881 112.812 56.1881 112.812 56.1881 112.812C56.1881 112.812 56.1881 112.812 56.1881 112.812C56.1881 112.812 56.1881 112.812 56.1881 112.812C56.1881 112.812 56.1881 112.812 56.1881 112.812C56.1881 112.812 56.1881 112.812 56.1881 112.812C56.1881 112.812 56.1881 112.812 56.1881 112.812C56.1881 112.812 56.1881 112.812 56.1881 112.812C56.1881 112.812 56.1881 112.812 56.1881 112.812C56.1881 112.812 56.1881 112.812 56.1881 112.812C56.1881 112.812 56.1881 112.812 56.1881 112.812C56.1881 112.812 56.1881 112.812 56.1881 112.812C56.1881 112.812 56.1881 112.812 56.1881 112.812C56.1881 112.812 56.1881 112.812 56.1881 112.812C56.1881 112.812 56.1881 112.812 56.1881 112.812C56.1881 112.812 56.1881 112.812 56.1881 112.812C56.1881 112.812 56.1881 112.812 56.1881 112.812C56.1881 112.812 56.1881 112.812 56.1881 112.812C56.1881 112.812 56.1881 112.812 56.1881 112.812C56.1881 112.812 56.1881 112.812 56.1881 112.812C56.1881 112.812 56.1881 112.812 56.1881 112.812C56.1881 112.812 56.1881 112.812 56.1881 112.812C56.1881 112.812 56.1881 112.812 56.188 112.812C56.188 112.812 56.188 112.812 56.188 112.812C56.188 112.812 56.188 112.812 56.188 112.812C56.188 112.812 56.188 112.812 56.188 112.812C56.188 112.812 56.188 112.812 56.188 112.812C56.188 112.812 56.188 112.812 56.188 112.812C56.188 112.812 56.188 112.812 56.188 112.812C56.188 112.812 56.188 112.812 56.188 112.812C56.188 112.812 56.188 112.812 56.188 112.812C56.188 112.812 56.188 112.812 56.188 112.812C56.188 112.812 56.188 112.812 56.188 112.812C56.188 112.812 56.188 112.812 56.188 112.812C56.188 112.812 56.188 112.812 56.188 112.812C56.188 112.812 56.188 112.812 56.188 112.812C56.188 112.812 56.188 112.812 56.188 112.812C56.188 112.812 56.188 112.812 56.188 112.812C56.188 112.812 56.188 112.812 56.188 112.812C56.188 112.812 56.188 112.812 56.188 112.812C56.188 112.812 56.188 112.812 56.188 112.812C56.188 112.812 56.188 112.812 56.188 112.812C56.188 112.812 56.188 112.812 56.188 112.812C56.188 112.812 56.188 112.812 56.188 112.812C56.188 112.812 56.188 112.812 56.188 112.812C56.188 112.812 56.188 112.812 56.188 112.812C56.188 112.812 56.188 112.812 56.188 112.812C56.188 112.812 56.188 112.812 56.188 112.812C56.188 112.812 56.188 112.812 56.188 112.812C56.188 112.812 56.188 112.812 56.188 112.812C56.188 112.812 56.188 112.812 56.188 112.812C56.188 112.812 56.188 112.812 56.188 112.812C56.188 112.812 56.188 112.812 56.188 112.812C56.188 112.812 56.188 112.812 56.188 112.812C56.188 112.812 56.188 112.812 56.188 112.812C56.188 112.812 56.188 112.812 56.188 112.812C56.188 112.812 56.188 112.812 56.188 112.812C56.188 112.812 56.188 112.812 56.188 112.812C56.188 112.812 56.188 112.812 56.188 112.812C56.188 112.812 56.188 112.812 56.188 112.812C56.188 112.812 56.188 112.812 56.188 112.812C56.188 112.812 56.188 112.812 56.188 112.812C56.188 112.812 56.188 112.812 56.188 112.812C56.188 112.812 56.188 112.812 56.188 112.812C56.188 112.812 56.188 112.812 56.188 112.812C56.188 112.812 56.188 112.812 56.188 112.812C56.188 112.812 56.188 112.812 56.188 112.812C56.188 112.812 56.188 112.812 56.188 112.812C56.188 112.812 56.188 112.812 56.188 112.812C56.188 112.812 56.188 112.812 56.188 112.812C56.188 112.812 56.188 112.812 56.188 112.812C56.188 112.812 56.188 112.812 56.188 112.812C56.188 112.812 56.188 112.812 56.188 112.812C56.188 112.812 56.188 112.812 56.188 112.812C56.188 112.812 56.188 112.812 56.188 112.812C56.188 112.812 56.188 112.812 56.188 112.812C56.188 112.812 56.188 112.812 56.188 112.812C56.188 112.812 56.188 112.812 56.188 112.812C56.188 112.812 56.188 112.812 56.188 112.812C56.188 112.812 56.188 112.812 56.188 112.812V114.812C56.188 114.812 56.188 114.812 56.188 114.812C56.188 114.812 56.188 114.812 56.188 114.812C56.188 114.812 56.188 114.812 56.188 114.812C56.188 114.812 56.188 114.812 56.188 114.812C56.188 114.812 56.188 114.812 56.188 114.812C56.188 114.812 56.188 114.812 56.188 114.812C56.188 114.812 56.188 114.812 56.188 114.812C56.188 114.812 56.188 114.812 56.188 114.812C56.188 114.812 56.188 114.812 56.188 114.812C56.188 114.812 56.188 114.812 56.188 114.812C56.188 114.812 56.188 114.812 56.188 114.812C56.188 114.812 56.188 114.812 56.188 114.812C56.188 114.812 56.188 114.812 56.188 114.812C56.188 114.812 56.188 114.812 56.188 114.812C56.188 114.812 56.188 114.812 56.188 114.812C56.188 114.812 56.188 114.812 56.188 114.812C56.188 114.812 56.188 114.812 56.188 114.812C56.188 114.812 56.188 114.812 56.188 114.812C56.188 114.812 56.188 114.812 56.188 114.812C56.188 114.812 56.188 114.812 56.188 114.812C56.188 114.812 56.188 114.812 56.188 114.812C56.188 114.812 56.188 114.812 56.188 114.812C56.188 114.812 56.188 114.812 56.188 114.812C56.188 114.812 56.188 114.812 56.188 114.812C56.188 114.812 56.188 114.812 56.188 114.812C56.188 114.812 56.188 114.812 56.188 114.812C56.188 114.812 56.188 114.812 56.188 114.812C56.188 114.812 56.188 114.812 56.188 114.812C56.188 114.812 56.188 114.812 56.188 114.812C56.188 114.812 56.188 114.812 56.188 114.812C56.188 114.812 56.188 114.812 56.188 114.812C56.188 114.812 56.188 114.812 56.188 114.812C56.188 114.812 56.188 114.812 56.188 114.812C56.188 114.812 56.188 114.812 56.188 114.812C56.188 114.812 56.188 114.812 56.188 114.812C56.188 114.812 56.188 114.812 56.188 114.812C56.188 114.812 56.188 114.812 56.188 114.812C56.188 114.812 56.188 114.812 56.188 114.812C56.188 114.812 56.188 114.812 56.188 114.812C56.188 114.812 56.188 114.812 56.188 114.812C56.188 114.812 56.188 114.812 56.188 114.812C56.188 114.812 56.188 114.812 56.188 114.812C56.188 114.812 56.188 114.812 56.188 114.812C56.188 114.812 56.188 114.812 56.188 114.812C56.188 114.812 56.188 114.812 56.188 114.812C56.188 114.812 56.188 114.812 56.188 114.812C56.188 114.812 56.188 114.812 56.188 114.812C56.188 114.812 56.188 114.812 56.188 114.812C56.188 114.812 56.188 114.812 56.188 114.812C56.188 114.812 56.188 114.812 56.188 114.812C56.188 114.812 56.188 114.812 56.188 114.812C56.188 114.812 56.188 114.812 56.188 114.812C56.188 114.812 56.188 114.812 56.188 114.812C56.188 114.812 56.188 114.812 56.188 114.812C56.188 114.812 56.188 114.812 56.188 114.812C56.188 114.812 56.188 114.812 56.188 114.812C56.188 114.812 56.188 114.812 56.188 114.812C56.1881 114.812 56.1881 114.812 56.1881 114.812C56.1881 114.812 56.1881 114.812 56.1881 114.812C56.1881 114.812 56.1881 114.812 56.1881 114.812C56.1881 114.812 56.1881 114.812 56.1881 114.812C56.1881 114.812 56.1881 114.812 56.1881 114.812C56.1881 114.812 56.1881 114.812 56.1881 114.812C56.1881 114.812 56.1881 114.812 56.1881 114.812C56.1881 114.812 56.1881 114.812 56.1881 114.812C56.1881 114.812 56.1881 114.812 56.1881 114.812C56.1881 114.812 56.1881 114.812 56.1881 114.812C56.1881 114.812 56.1881 114.812 56.1881 114.812C56.1881 114.812 56.1881 114.812 56.1881 114.812C56.1881 114.812 56.1881 114.812 56.1881 114.812C56.1881 114.812 56.1881 114.812 56.1881 114.812C56.1881 114.812 56.1881 114.812 56.1881 114.812C56.1881 114.812 56.1881 114.812 56.1881 114.812C56.1881 114.812 56.1881 114.812 56.1881 114.812C56.1881 114.812 56.1881 114.812 56.1881 114.812C56.1881 114.812 56.1881 114.812 56.1881 114.812C56.1881 114.812 56.1881 114.812 56.1881 114.812C56.1881 114.812 56.1881 114.812 56.1881 114.812C56.1881 114.812 56.1881 114.812 56.1881 114.812C56.1881 114.812 56.1881 114.812 56.1881 114.812C56.1881 114.812 56.1881 114.812 56.1881 114.812C56.1881 114.812 56.1881 114.812 56.1881 114.812C56.1881 114.812 56.1881 114.812 56.1881 114.812C56.1881 114.812 56.1881 114.812 56.1881 114.812C56.1881 114.812 56.1881 114.812 56.1881 114.812C56.1881 114.812 56.1881 114.812 56.1881 114.812C56.1881 114.812 56.1881 114.812 56.1881 114.812C56.1881 114.812 56.1881 114.812 56.1881 114.812C56.1881 114.812 56.1881 114.812 56.1881 114.812C56.1881 114.812 56.1881 114.812 56.1881 114.812C56.1881 114.812 56.1881 114.812 56.1881 114.812C56.1881 114.812 56.1881 114.812 56.1881 114.812C56.1881 114.812 56.1881 114.812 56.1881 114.812C56.1881 114.812 56.1881 114.812 56.1881 114.812C56.1881 114.812 56.1881 114.812 56.1881 114.812C56.1881 114.812 56.1881 114.812 56.1881 114.812C56.1881 114.812 56.1881 114.812 56.1881 114.812C56.1881 114.812 56.1881 114.812 56.1881 114.812C56.1881 114.812 56.1881 114.812 56.1881 114.812C56.1881 114.812 56.1881 114.812 56.1881 114.812C56.1881 114.812 56.1881 114.812 56.1881 114.812C56.1881 114.812 56.1881 114.812 56.1881 114.812C56.1881 114.812 56.1881 114.812 56.1881 114.812C56.1881 114.812 56.1881 114.812 56.1881 114.812C56.1881 114.812 56.1881 114.812 56.1881 114.812C56.1881 114.812 56.1881 114.812 56.1881 114.812C56.1881 114.812 56.1881 114.812 56.1881 114.812C56.1881 114.812 56.1881 114.812 56.1881 114.812C56.1881 114.812 56.1881 114.812 56.1881 114.812C56.1881 114.812 56.1881 114.812 56.1881 114.812C56.1881 114.812 56.1881 114.812 56.1881 114.812C56.1881 114.812 56.1881 114.812 56.1881 114.812C56.1881 114.812 56.1881 114.812 56.1881 114.812C56.1881 114.812 56.1881 114.812 56.1881 114.812C56.1881 114.812 56.1881 114.812 56.1881 114.812C56.1881 114.812 56.1881 114.812 56.1881 114.812C56.1881 114.812 56.1881 114.812 56.1881 114.812C56.1881 114.812 56.1881 114.812 56.1881 114.812C56.1881 114.812 56.1881 114.812 56.1881 114.812C56.1881 114.812 56.1881 114.812 56.1881 114.812C56.1881 114.812 56.1881 114.812 56.1881 114.812C56.1881 114.812 56.1881 114.812 56.1881 114.812C56.1881 114.812 56.1881 114.812 56.1881 114.812C56.1881 114.812 56.1881 114.812 56.1881 114.812C56.1881 114.812 56.1881 114.812 56.1881 114.812C56.1881 114.812 56.1881 114.812 56.1881 114.812C56.1881 114.812 56.1881 114.812 56.1881 114.812C56.1881 114.812 56.1881 114.812 56.1881 114.812C56.1881 114.812 56.1881 114.812 56.1881 114.812C56.1881 114.812 56.1881 114.812 56.1881 114.812C56.1881 114.812 56.1881 114.812 56.1881 114.812C56.1881 114.812 56.1881 114.812 56.1881 114.812C56.1881 114.812 56.1881 114.812 56.1881 114.812C56.1881 114.812 56.1881 114.812 56.1881 114.812C56.1881 114.812 56.1881 114.812 56.1881 114.812C56.1881 114.812 56.1881 114.812 56.1881 114.812C56.1881 114.812 56.1881 114.812 56.1881 114.812C56.1881 114.812 56.1881 114.812 56.1881 114.812C56.1881 114.812 56.1881 114.812 56.1881 114.812C56.1881 114.812 56.1881 114.812 56.1881 114.812C56.1881 114.812 56.1881 114.812 56.1881 114.812C56.1881 114.812 56.1881 114.812 56.1881 114.812C56.1881 114.812 56.1881 114.812 56.1881 114.812C56.1881 114.812 56.1881 114.812 56.1881 114.812C56.1881 114.812 56.1881 114.812 56.1881 114.812C56.1881 114.812 56.1881 114.812 56.1881 114.812C56.1881 114.812 56.1881 114.812 56.1881 114.812C56.1881 114.812 56.1881 114.812 56.1881 114.812C56.1881 114.812 56.1881 114.812 56.1881 114.812C56.1881 114.812 56.1881 114.812 56.1882 114.812C56.1882 114.812 56.1882 114.812 56.1882 114.812C56.1882 114.812 56.1882 114.812 56.1882 114.812C56.1882 114.812 56.1882 114.812 56.1882 114.812C56.1882 114.812 56.1882 114.812 56.1882 114.812C56.1882 114.812 56.1882 114.812 56.1882 114.812C56.1882 114.812 56.1882 114.812 56.1882 114.812C56.1882 114.812 56.1882 114.812 56.1882 114.812C56.1882 114.812 56.1882 114.812 56.1882 114.812C56.1882 114.812 56.1882 114.812 56.1882 114.812C56.1882 114.812 56.1882 114.812 56.1882 114.812C56.1882 114.812 56.1882 114.812 56.1882 114.812C56.1882 114.812 56.1882 114.812 56.1882 114.812C56.1882 114.812 56.1882 114.812 56.1882 114.812C56.1882 114.812 56.1882 114.812 56.1882 114.812C56.1882 114.812 56.1882 114.812 56.1882 114.812C56.1882 114.812 56.1882 114.812 56.1882 114.812C56.1882 114.812 56.1882 114.812 56.1882 114.812C56.1882 114.812 56.1882 114.812 56.1882 114.812C56.1882 114.812 56.1882 114.812 56.1882 114.812C56.1882 114.812 56.1882 114.812 56.1882 114.812C56.1882 114.812 56.1882 114.812 56.1882 114.812C56.1882 114.812 56.1882 114.812 56.1882 114.812C56.1882 114.812 56.1882 114.812 56.1882 114.812C56.1882 114.812 56.1882 114.812 56.1882 114.812C56.1882 114.812 56.1882 114.812 56.1882 114.812C56.1882 114.812 56.1882 114.812 56.1882 114.812C56.1882 114.812 56.1882 114.812 56.1882 114.812C56.1882 114.812 56.1882 114.812 56.1882 114.812C56.1882 114.812 56.1882 114.812 56.1882 114.812C56.1882 114.812 56.1882 114.812 56.1882 114.812C56.1882 114.812 56.1882 114.812 56.1882 114.812C56.1882 114.812 56.1882 114.812 56.1882 114.812C56.1882 114.812 56.1882 114.812 56.1882 114.812C56.1882 114.812 56.1882 114.812 56.1882 114.812C56.1882 114.812 56.1882 114.812 56.1882 114.812C56.1882 114.812 56.1882 114.812 56.1882 114.812C56.1882 114.812 56.1882 114.812 56.1882 114.812C56.1882 114.812 56.1882 114.812 56.1882 114.812C56.1882 114.812 56.1882 114.812 56.1882 114.812C56.1882 114.812 56.1882 114.812 56.1882 114.812C56.1882 114.812 56.1882 114.812 56.1882 114.812C56.1882 114.812 56.1882 114.812 56.1882 114.812C56.1882 114.812 56.1882 114.812 56.1882 114.812C56.1882 114.812 56.1882 114.812 56.1882 114.812C56.1882 114.812 56.1882 114.812 56.1882 114.812C56.1882 114.812 56.1882 114.812 56.1882 114.812C56.1882 114.812 56.1882 114.812 56.1882 114.812C56.1882 114.812 56.1882 114.812 56.1882 114.812C56.1882 114.812 56.1882 114.812 56.1882 114.812C56.1882 114.812 56.1882 114.812 56.1882 114.812C56.1882 114.812 56.1882 114.812 56.1882 114.812C56.1882 114.812 56.1882 114.812 56.1882 114.812C56.1882 114.812 56.1882 114.812 56.1882 114.812C56.1882 114.812 56.1882 114.812 56.1882 114.812C56.1882 114.812 56.1882 114.812 56.1882 114.812C56.1882 114.812 56.1882 114.812 56.1882 114.812C56.1882 114.812 56.1882 114.812 56.1882 114.812C56.1882 114.812 56.1882 114.812 56.1882 114.812C56.1882 114.812 56.1882 114.812 56.1882 114.812C56.1882 114.812 56.1882 114.812 56.1882 114.812C56.1882 114.812 56.1882 114.812 56.1882 114.812C56.1882 114.812 56.1882 114.812 56.1882 114.812C56.1882 114.812 56.1882 114.812 56.1882 114.812C56.1882 114.812 56.1882 114.812 56.1882 114.812C56.1882 114.812 56.1882 114.812 56.1882 114.812C56.1882 114.812 56.1882 114.812 56.1882 114.812C56.1882 114.812 56.1882 114.812 56.1882 114.812C56.1882 114.812 56.1882 114.812 56.1882 114.812C56.1882 114.812 56.1882 114.812 56.1882 114.812C56.1882 114.812 56.1882 114.812 56.1882 114.812C56.1882 114.812 56.1882 114.812 56.1882 114.812C56.1882 114.812 56.1882 114.812 56.1882 114.812C56.1882 114.812 56.1882 114.812 56.1882 114.812C56.1882 114.812 56.1882 114.812 56.1882 114.812C56.1882 114.812 56.1882 114.812 56.1882 114.812C56.1882 114.812 56.1882 114.812 56.1882 114.812C56.1882 114.812 56.1882 114.812 56.1882 114.812C56.1882 114.812 56.1882 114.812 56.1882 114.812C56.1882 114.812 56.1882 114.812 56.1882 114.812C56.1882 114.812 56.1882 114.812 56.1882 114.812C56.1882 114.812 56.1882 114.812 56.1882 114.812C56.1882 114.812 56.1882 114.812 56.1882 114.812C56.1882 114.812 56.1882 114.812 56.1882 114.812C56.1882 114.812 56.1882 114.812 56.1882 114.812C56.1882 114.812 56.1882 114.812 56.1882 114.812C56.1882 114.812 56.1882 114.812 56.1882 114.812C56.1882 114.812 56.1882 114.812 56.1882 114.812C56.1882 114.812 56.1882 114.812 56.1882 114.812C56.1882 114.812 56.1882 114.812 56.1882 114.812C56.1882 114.812 56.1882 114.812 56.1882 114.812C56.1882 114.812 56.1882 114.812 56.1882 114.812C56.1882 114.812 56.1882 114.812 56.1882 114.812C56.1883 114.812 56.1883 114.812 56.1883 114.812C56.1883 114.812 56.1883 114.812 56.1883 114.812C56.1883 114.812 56.1883 114.812 56.1883 114.812C56.1883 114.812 56.1883 114.812 56.1883 114.812C56.1883 114.812 56.1883 114.812 56.1883 114.812C56.1883 114.812 56.1883 114.812 56.1883 114.812C56.1883 114.812 56.1883 114.812 56.1883 114.812C56.1883 114.812 56.1883 114.812 56.1883 114.812C56.1883 114.812 56.1883 114.812 56.1883 114.812C56.1883 114.812 56.1883 114.812 56.1883 114.812C56.1883 114.812 56.1883 114.812 56.1883 114.812C56.1883 114.812 56.1883 114.812 56.1883 114.812C56.1883 114.812 56.1883 114.812 56.1883 114.812C56.1883 114.812 56.1883 114.812 56.1883 114.812C56.1883 114.812 56.1883 114.812 56.1883 114.812C56.1883 114.812 56.1883 114.812 56.1883 114.812C56.1883 114.812 56.1883 114.812 56.1883 114.812C56.1883 114.812 56.1883 114.812 56.1883 114.812C56.1883 114.812 56.1883 114.812 56.1883 114.812C56.1883 114.812 56.1883 114.812 56.1883 114.812C56.1883 114.812 56.1883 114.812 56.1883 114.812C56.1883 114.812 56.1883 114.812 56.1883 114.812C56.1883 114.812 56.1883 114.812 56.1883 114.812C56.1883 114.812 56.1883 114.812 56.1883 114.812C56.1883 114.812 56.1883 114.812 56.1883 114.812C56.1883 114.812 56.1883 114.812 56.1883 114.812C56.1883 114.812 56.1883 114.812 56.1883 114.812C56.1883 114.812 56.1883 114.812 56.1883 114.812C56.1883 114.812 56.1883 114.812 56.1883 114.812C56.1883 114.812 56.1883 114.812 56.1883 114.812C56.1883 114.812 56.1883 114.812 56.1883 114.812C56.1883 114.812 56.1883 114.812 56.1883 114.812C56.1883 114.812 56.1883 114.812 56.1883 114.812C56.1883 114.812 56.1883 114.812 56.1883 114.812C56.1883 114.812 56.1883 114.812 56.1883 114.812C56.1883 114.812 56.1883 114.812 56.1883 114.812C56.1883 114.812 56.1883 114.812 56.1883 114.812C56.1883 114.812 56.1883 114.812 56.1883 114.812C56.1883 114.812 56.1883 114.812 56.1883 114.812C56.1883 114.812 56.1883 114.812 56.1883 114.812C56.1883 114.812 56.1883 114.812 56.1883 114.812C56.1883 114.812 56.1883 114.812 56.1883 114.812C56.1883 114.812 56.1883 114.812 56.1883 114.812C56.1883 114.812 56.1883 114.812 56.1883 114.812C56.1883 114.812 56.1883 114.812 56.1883 114.812C56.1883 114.812 56.1883 114.812 56.1883 114.812C56.1883 114.812 56.1883 114.812 56.1883 114.812C56.1883 114.812 56.1883 114.812 56.1883 114.812C56.1883 114.812 56.1883 114.812 56.1883 114.812C56.1883 114.812 56.1883 114.812 56.1883 114.812C56.1883 114.812 56.1883 114.812 56.1883 114.812C56.1883 114.812 56.1883 114.812 56.1883 114.812C56.1883 114.812 56.1883 114.812 56.1883 114.812C56.1883 114.812 56.1883 114.812 56.1883 114.812C56.1883 114.812 56.1883 114.812 56.1883 114.812C56.1883 114.812 56.1883 114.812 56.1883 114.812C56.1883 114.812 56.1883 114.812 56.1883 114.812C56.1883 114.812 56.1883 114.812 56.1883 114.812C56.1883 114.812 56.1883 114.812 56.1883 114.812C56.1883 114.812 56.1883 114.812 56.1883 114.812C56.1883 114.812 56.1883 114.812 56.1883 114.812C56.1883 114.812 56.1883 114.812 56.1883 114.812C56.1883 114.812 56.1883 114.812 56.1883 114.812C56.1883 114.812 56.1883 114.812 56.1883 114.812C56.1883 114.812 56.1883 114.812 56.1883 114.812C56.1883 114.812 56.1883 114.812 56.1883 114.812C56.1883 114.812 56.1883 114.812 56.1883 114.812C56.1883 114.812 56.1883 114.812 56.1883 114.812C56.1883 114.812 56.1883 114.812 56.1883 114.812C56.1883 114.812 56.1883 114.812 56.1883 114.812C56.1883 114.812 56.1883 114.812 56.1883 114.812C56.1883 114.812 56.1883 114.812 56.1883 114.812C56.1883 114.812 56.1883 114.812 56.1883 114.812C56.1883 114.812 56.1883 114.812 56.1883 114.812C56.1883 114.812 56.1883 114.812 56.1883 114.812C56.1883 114.812 56.1883 114.812 56.1883 114.812C56.1883 114.812 56.1883 114.812 56.1883 114.812C56.1883 114.812 56.1883 114.812 56.1883 114.812C56.1883 114.812 56.1883 114.812 56.1883 114.812C56.1883 114.812 56.1883 114.812 56.1883 114.812C56.1883 114.812 56.1883 114.812 56.1883 114.812C56.1883 114.812 56.1883 114.812 56.1883 114.812C56.1883 114.812 56.1883 114.812 56.1883 114.812C56.1883 114.812 56.1883 114.812 56.1883 114.812C56.1883 114.812 56.1883 114.812 56.1883 114.812C56.1883 114.812 56.1883 114.812 56.1883 114.812C56.1883 114.812 56.1883 114.812 56.1883 114.812C56.1883 114.812 56.1883 114.812 56.1883 114.812C56.1883 114.812 56.1883 114.812 56.1883 114.812C56.1883 114.812 56.1883 114.812 56.1883 114.812C56.1883 114.812 56.1883 114.812 56.1883 114.812C56.1883 114.812 56.1883 114.812 56.1883 114.812C56.1883 114.812 56.1883 114.812 56.1884 114.812C56.1884 114.812 56.1884 114.812 56.1884 114.812C56.1884 114.812 56.1884 114.812 56.1884 114.812C56.1884 114.812 56.1884 114.812 56.1884 114.812C56.1884 114.812 56.1884 114.812 56.1884 114.812C56.1884 114.812 56.1884 114.812 56.1884 114.812C56.1884 114.812 56.1884 114.812 56.1884 114.812C56.1884 114.812 56.1884 114.812 56.1884 114.812C56.1884 114.812 56.1884 114.812 56.1884 114.812C56.1884 114.812 56.1884 114.812 56.1884 114.812C56.1884 114.812 56.1884 114.812 56.1884 114.812C56.1884 114.812 56.1884 114.812 56.1884 114.812C56.1884 114.812 56.1884 114.812 56.1884 114.812C56.1884 114.812 56.1884 114.812 56.1884 114.812C56.1884 114.812 56.1884 114.812 56.1884 114.812C56.1884 114.812 56.1884 114.812 56.1884 114.812C56.1884 114.812 56.1884 114.812 56.1884 114.812C56.1884 114.812 56.1884 114.812 56.1884 114.812C56.1884 114.812 56.1884 114.812 56.1884 114.812C56.1884 114.812 56.1884 114.812 56.1884 114.812C56.1884 114.812 56.1884 114.812 56.1884 114.812C56.1884 114.812 56.1884 114.812 56.1884 114.812C56.1884 114.812 56.1884 114.812 56.1884 114.812C56.1884 114.812 56.1884 114.812 56.1884 114.812C56.1884 114.812 56.1884 114.812 56.1884 114.812C56.1884 114.812 56.1884 114.812 56.1884 114.812C56.1884 114.812 56.1884 114.812 56.1884 114.812C56.1884 114.812 56.1884 114.812 56.1884 114.812C56.1884 114.812 56.1884 114.812 56.1884 114.812C56.1884 114.812 56.1884 114.812 56.1884 114.812C56.1884 114.812 56.1884 114.812 56.1884 114.812C56.1884 114.812 56.1884 114.812 56.1884 114.812C56.1884 114.812 56.1884 114.812 56.1884 114.812C56.1884 114.812 56.1884 114.812 56.1884 114.812C56.1884 114.812 56.1884 114.812 56.1884 114.812C56.1884 114.812 56.1884 114.812 56.1884 114.812C56.1884 114.812 56.1884 114.812 56.1884 114.812C56.1884 114.812 56.1884 114.812 56.1884 114.812C56.1884 114.812 56.1884 114.812 56.1884 114.812C56.1884 114.812 56.1884 114.812 56.1884 114.812C56.1884 114.812 56.1884 114.812 56.1884 114.812C56.1884 114.812 56.1884 114.812 56.1884 114.812C56.1884 114.812 56.1884 114.812 56.1884 114.812C56.1884 114.812 56.1884 114.812 56.1884 114.812C56.1884 114.812 56.1884 114.812 56.1884 114.812C56.1884 114.812 56.1884 114.812 56.1884 114.812C56.1884 114.812 56.1884 114.812 56.1884 114.812C56.1884 114.812 56.1884 114.812 56.1884 114.812C56.1884 114.812 56.1884 114.812 56.1884 114.812C56.1884 114.812 56.1884 114.812 56.1884 114.812C56.1884 114.812 56.1884 114.812 56.1884 114.812C56.1884 114.812 56.1884 114.812 56.1884 114.812C56.1884 114.812 56.1884 114.812 56.1884 114.812C56.1884 114.812 56.1884 114.812 56.1884 114.812C56.1884 114.812 56.1884 114.812 56.1884 114.812C56.1884 114.812 56.1884 114.812 56.1884 114.812C56.1884 114.812 56.1884 114.812 56.1884 114.812C56.1884 114.812 56.1884 114.812 56.1884 114.812C56.1884 114.812 56.1884 114.812 56.1884 114.812C56.1884 114.812 56.1884 114.812 56.1884 114.812C56.1884 114.812 56.1884 114.812 56.1884 114.812C56.1884 114.812 56.1884 114.812 56.1884 114.812C56.1884 114.812 56.1884 114.812 56.1884 114.812C56.1884 114.812 56.1884 114.812 56.1884 114.812C56.1884 114.812 56.1884 114.812 56.1884 114.812C56.1884 114.812 56.1884 114.812 56.1884 114.812C56.1884 114.812 56.1884 114.812 56.1884 114.812C56.1884 114.812 56.1884 114.812 56.1884 114.812C56.1884 114.812 56.1884 114.812 56.1884 114.812C56.1884 114.812 56.1884 114.812 56.1884 114.812C56.1884 114.812 56.1884 114.812 56.1884 114.812C56.1884 114.812 56.1884 114.812 56.1884 114.812C56.1884 114.812 56.1884 114.812 56.1884 114.812C56.1884 114.812 56.1884 114.812 56.1884 114.812C56.1884 114.812 56.1884 114.812 56.1884 114.812C56.1884 114.812 56.1884 114.812 56.1884 114.812C56.1884 114.812 56.1884 114.812 56.1884 114.812C56.1884 114.812 56.1884 114.812 56.1884 114.812C56.1884 114.812 56.1884 114.812 56.1884 114.812C56.1884 114.812 56.1884 114.812 56.1884 114.812C56.1884 114.812 56.1884 114.812 56.1884 114.812C56.1884 114.812 56.1884 114.812 56.1884 114.812C56.1884 114.812 56.1884 114.812 56.1884 114.812C56.1884 114.812 56.1884 114.812 56.1884 114.812C56.1884 114.812 56.1884 114.812 56.1884 114.812C56.1884 114.812 56.1884 114.812 56.1884 114.812C56.1884 114.812 56.1884 114.812 56.1884 114.812C56.1884 114.812 56.1884 114.812 56.1884 114.812C56.1884 114.812 56.1884 114.812 56.1884 114.812C56.1884 114.812 56.1884 114.812 56.1884 114.812C56.1884 114.812 56.1884 114.812 56.1884 114.812C56.1884 114.812 56.1884 114.812 56.1884 114.812C56.1884 114.812 56.1884 114.812 56.1884 114.812C56.1884 114.812 56.1885 114.812 56.1885 114.812C56.1885 114.812 56.1885 114.812 56.1885 114.812C56.1885 114.812 56.1885 114.812 56.1885 114.812C56.1885 114.812 56.1885 114.812 56.1885 114.812C56.1885 114.812 56.1885 114.812 56.1885 114.812C56.1885 114.812 56.1885 114.812 56.1885 114.812C56.1885 114.812 56.1885 114.812 56.1885 114.812C56.1885 114.812 56.1885 114.812 56.1885 114.812C56.1885 114.812 56.1885 114.812 56.1885 114.812C56.1885 114.812 56.1885 114.812 56.1885 114.812C56.1885 114.812 56.1885 114.812 56.1885 114.812C56.1885 114.812 56.1885 114.812 56.1885 114.812C56.1885 114.812 56.1885 114.812 56.1885 114.812C56.1885 114.812 56.1885 114.812 56.1885 114.812C56.1885 114.812 56.1885 114.812 56.1885 114.812C56.1885 114.812 56.1885 114.812 56.1885 114.812C56.1885 114.812 56.1885 114.812 56.1885 114.812C56.1885 114.812 56.1885 114.812 56.1885 114.812C56.1885 114.812 56.1885 114.812 56.1885 114.812C56.1885 114.812 56.1885 114.812 56.1885 114.812C56.1885 114.812 56.1885 114.812 56.1885 114.812C56.1885 114.812 56.1885 114.812 56.1885 114.812C56.1885 114.812 56.1885 114.812 56.1885 114.812C56.1885 114.812 56.1885 114.812 56.1885 114.812C56.1885 114.812 56.1885 114.812 56.1885 114.812C56.1885 114.812 56.1885 114.812 56.1885 114.812C56.1885 114.812 56.1885 114.812 56.1885 114.812C56.1885 114.812 56.1885 114.812 56.1885 114.812C56.1885 114.812 56.1885 114.812 56.1885 114.812C56.1885 114.812 56.1885 114.812 56.1885 114.812C56.1885 114.812 56.1885 114.812 56.1885 114.812C56.1885 114.812 56.1885 114.812 56.1885 114.812C56.1885 114.812 56.1885 114.812 56.1885 114.812C56.1885 114.812 56.1885 114.812 56.1885 114.812C56.1885 114.812 56.1885 114.812 56.1885 114.812C56.1885 114.812 56.1885 114.812 56.1885 114.812C56.1885 114.812 56.1885 114.812 56.1885 114.812C56.1885 114.812 56.1885 114.812 56.1885 114.812C56.1885 114.812 56.1885 114.812 56.1885 114.812C56.1885 114.812 56.1885 114.812 56.1885 114.812C56.1885 114.812 56.1885 114.812 56.1885 114.812C56.1885 114.812 56.1885 114.812 56.1885 114.812C56.1885 114.812 56.1885 114.812 56.1885 114.812C56.1885 114.812 56.1885 114.812 56.1885 114.812C56.1885 114.812 56.1885 114.812 56.1885 114.812C56.1885 114.812 56.1885 114.812 56.1885 114.812C56.1885 114.812 56.1885 114.812 56.1885 114.812C56.1885 114.812 56.1885 114.812 56.1885 114.812C56.1885 114.812 56.1885 114.812 56.1885 114.812C56.1885 114.812 56.1885 114.812 56.1885 114.812C56.1885 114.812 56.1885 114.812 56.1885 114.812C56.1885 114.812 56.1885 114.812 56.1885 114.812C56.1885 114.812 56.1885 114.812 56.1885 114.812C56.1885 114.812 56.1885 114.812 56.1885 114.812C56.1885 114.812 56.1885 114.812 56.1885 114.812C56.1885 114.812 56.1885 114.812 56.1885 114.812C56.1885 114.812 56.1885 114.812 56.1885 114.812C56.1885 114.812 56.1885 114.812 56.1885 114.812C56.1885 114.812 56.1885 114.812 56.1885 114.812C56.1885 114.812 56.1885 114.812 56.1885 114.812C56.1885 114.812 56.1885 114.812 56.1885 114.812C56.1885 114.812 56.1885 114.812 56.1885 114.812C56.1885 114.812 56.1885 114.812 56.1885 114.812C56.1885 114.812 56.1885 114.812 56.1885 114.812C56.1885 114.812 56.1885 114.812 56.1885 114.812C56.1885 114.812 56.1885 114.812 56.1885 114.812C56.1885 114.812 56.1885 114.812 56.1885 114.812C56.1885 114.812 56.1885 114.812 56.1885 114.812C56.1885 114.812 56.1885 114.812 56.1885 114.812C56.1885 114.812 56.1885 114.812 56.1885 114.812C56.1885 114.812 56.1885 114.812 56.1885 114.812C56.1885 114.812 56.1885 114.812 56.1885 114.812C56.1885 114.812 56.1885 114.812 56.1885 114.812C56.1885 114.812 56.1885 114.812 56.1885 114.812C56.1885 114.812 56.1885 114.812 56.1885 114.812C56.1885 114.812 56.1885 114.812 56.1885 114.812C56.1885 114.812 56.1885 114.812 56.1885 114.812C56.1885 114.812 56.1885 114.812 56.1885 114.812C56.1885 114.812 56.1885 114.812 56.1885 114.812C56.1885 114.812 56.1885 114.812 56.1885 114.812C56.1885 114.812 56.1885 114.812 56.1885 114.812C56.1885 114.812 56.1885 114.812 56.1885 114.812C56.1885 114.812 56.1885 114.812 56.1885 114.812C56.1885 114.812 56.1885 114.812 56.1885 114.812C56.1885 114.812 56.1885 114.812 56.1885 114.812V112.812ZM112 57.0001C112 87.824 87.0124 112.812 56.1885 112.812V114.812C88.117 114.812 114 88.9285 114 57.0001H112ZM56.1885 1.18848C87.0124 1.18848 112 26.1762 112 57.0001H114C114 25.0716 88.117 -0.811523 56.1885 -0.811523V1.18848ZM56.188 1.18848C56.1881 1.18848 56.1882 1.18848 56.1883 1.18848C56.1884 1.18848 56.1885 1.18848 56.1885 1.18848V-0.811523C56.1884 -0.811523 56.1883 -0.811523 56.1883 -0.811523C56.1882 -0.811523 56.1881 -0.811523 56.188 -0.811523V1.18848ZM55.188 0.188477V113.812H57.188V0.188477H55.188Z" fill="#DF991B" mask="url(#path-2-inside-1_3617_3)"/>
<circle cx="56" cy="57" r="56" fill="white"/>
<circle cx="57.0002" cy="55.0012" r="32.4074" fill="black"/>
<circle cx="57" cy="55" r="34.5" stroke="black"/>
<path d="M67.4431 68.068H69.2804C71.7592 68.068 73.7131 67.3833 75.1421 66.014C76.5711 64.6446 78.0001 62.2631 79.4291 58.8397C79.6332 58.3931 79.8082 58.1848 80.0415 58.1848C80.0998 58.1848 80.1582 58.1848 80.2165 58.1848C80.2748 58.1848 80.304 58.1848 80.3332 58.1848L78.1168 69.2588C76.8627 68.8718 74.3839 68.6634 70.6802 68.6634H54.4072V68.4252C54.4072 68.2168 54.6114 68.0978 55.0488 67.9787C55.4863 67.8894 55.982 67.7703 56.507 67.681C57.0611 67.5619 57.5277 67.2047 57.9651 66.6093C58.4026 66.014 58.6067 65.1804 58.6067 64.079V44.6399C58.6067 43.7469 58.4026 43.0622 57.9651 42.5859C57.5277 42.1096 57.0611 41.8119 56.5361 41.7226C56.0112 41.6333 55.5446 41.5142 55.1071 41.4249C54.6697 41.3058 54.4656 41.157 54.4656 40.9784V40.7402H68.143V40.9784C68.143 41.1868 67.9097 41.3356 67.4723 41.4249C67.0348 41.544 66.539 41.6333 66.0141 41.7226C65.4892 41.8119 64.9934 42.1096 64.556 42.6157C64.1185 43.1217 63.8852 43.8064 63.8852 44.6697C63.8852 46.5154 63.8852 49.8495 63.8852 54.672C63.8852 59.4946 63.8852 62.7989 63.8852 64.6744C63.8852 65.7758 64.1768 66.6391 64.7309 67.2047C65.285 67.8001 66.2183 68.068 67.4723 68.068H67.4431Z" fill="white"/>
<path fill-rule="evenodd" clip-rule="evenodd" d="M49.2227 67.7543C47.1361 67.4991 45.6356 66.767 44.7355 65.5438C43.5935 63.9918 43.0078 61.7371 43.0078 58.7504V46.54C43.0078 45.398 43.1835 44.4317 43.5056 43.5825C43.652 43.0262 43.9449 42.5577 44.3548 42.2356C44.7648 41.9135 45.204 41.7085 45.6432 41.6499C46.0824 41.5914 46.4631 41.5035 46.8145 41.4157C47.1366 41.2985 47.3123 41.1814 47.3123 40.9764V40.7422H33.667V40.9764C33.667 41.1521 33.9012 41.2985 34.3112 41.4157C34.4149 41.4379 34.5243 41.462 34.6379 41.487C34.9731 41.5609 35.3449 41.6429 35.7167 41.7085C36.2145 41.7963 36.7123 42.0891 37.1222 42.5577C37.5615 43.0262 37.7664 43.6996 37.7664 44.5781V58.4576C37.7664 65.1467 41.5944 68.5708 49.2227 68.7022V67.7543Z" fill="white"/>
</svg>
